# xmcd
#
# Track frame offsets:
# 150
# 12357
# 21140
# 36317
# 47287
# 58602
# 70725
# 87125
# 97262
# 107032
# 117740
# 128435
# 141815
# 153567
# 164742
# 182080
#
# Disc length: 2564 seconds
#
#
# Revision: 0
# Processed by: cddbd v1.5.1PL0 Copyright (c) Steve Scherf et al.
# Submitted via: FreeRIP 2.92 
#
DISCID=da0a0210
DTITLE=John Lee Hooker - I'm in the Mood
DYEAR=1900
DGENRE=Blues
TTITLE0=I'm in the Mood
TTITLE1=Hobo Blues
TTITLE2=Crawling King Snake
TTITLE3=No Shoes
TTITLE4=Boom Boom
TTITLE5=Whiskey and Wimmen
TTITLE6=Process
TTITLE7=Dimples
TTITLE8=Onions
TTITLE9=Lit's Make it
TTITLE10=Want Ad Blues
TTITLE11=Baby Lee
TTITLE12=Little Wheel
TTITLE13=Good Rockin' Mama
TTITLE14=Blues Before Sunrise
TTITLE15=Old Time Shimmy
EXTD=
EXTT0=
EXTT1=
EXTT2=
EXTT3=
EXTT4=
EXTT5=
EXTT6=
EXTT7=
EXTT8=
EXTT9=
EXTT10=
EXTT11=
EXTT12=
EXTT13=
EXTT14=
EXTT15=
PLAYORDER=
